<svg xmlns="http://www.w3.org/2000/svg" width="114" height="114" viewBox="0 0 114 114">
  <defs>
    <linearGradient id="color-a" x1="8.767%" x2="91.233%" y1="0%" y2="100%">
      <stop offset="0%" stop-color="#8DF2DA"/>
      <stop offset="100%" stop-color="#289CE1"/>
    </linearGradient>
  </defs>
  <g fill="none" fill-rule="evenodd" transform="translate(7 2)">
    <path fill="url(#color-a)" d="M91.8214839,21.3101855 L58.9453548,2.32918548 C53.567129,-0.776395161 46.9440968,-0.776395161 41.565871,2.32918548 L8.68974194,21.3101855 C3.31151613,24.4139274 -5.68434189e-14,30.1525403 -5.68434189e-14,36.3618629 L-5.68434189e-14,74.3238629 C-5.68434189e-14,80.5313468 3.31151613,86.2699597 8.68974194,89.3755403 L41.565871,108.354702 C46.9440968,111.458444 53.567129,111.458444 58.9453548,108.354702 L91.8214839,89.3755403 C97.1997097,86.2699597 100.511226,80.5313468 100.511226,74.3238629 L100.511226,36.3618629 C100.511226,30.1525403 97.1997097,24.4139274 91.8214839,21.3101855"/>
    <path fill="#FFF" d="M8.82782903,77.0170669 L8.80024839,76.9497242 C8.66418387,76.615079 8.54282903,76.273079 8.43066774,75.9292403 C8.38837742,75.7931758 8.3460871,75.6571113 8.30747419,75.5192081 C8.20634516,75.1790468 8.11624839,74.8333694 8.0427,74.4840145 C8.02799032,74.4141435 8.00960323,74.3442726 7.99489355,74.2725629 C7.91582903,73.8754016 7.85882903,73.4708855 7.81102258,73.0626919 C7.79999032,72.9431758 7.78711935,72.8236597 7.7760871,72.7004661 C7.73747419,72.283079 7.71357097,71.8601758 7.71357097,71.4354339 C7.71357097,71.4225629 7.71173226,71.4115306 7.71173226,71.3986597 L7.71173226,65.3732081 C7.71173226,63.3874016 8.11073226,61.4585952 8.85540968,59.686079 C10.0799903,56.7643694 12.2349581,54.2674016 15.0684097,52.63095 L15.0684097,52.63095 L20.7592161,49.3433371 L42.8991194,36.5624661 C47.4517645,33.9331113 53.059829,33.9331113 57.6106355,36.5624661 L57.6106355,36.5624661 L79.7505387,49.3433371 L85.4431839,52.63095 C88.2766355,54.2674016 90.4316032,56.7643694 91.6561839,59.686079 C92.3990226,61.4585952 92.7998613,63.3874016 92.7998613,65.3732081 L92.7998613,65.3732081 L92.7998613,71.3986597 L92.7998613,71.3986597 L92.7980226,71.4354339 C92.7980226,71.8601758 92.7722806,72.283079 92.7355065,72.7004661 C92.7244742,72.8236597 92.7116032,72.9431758 92.6987323,73.0626919 C92.6527645,73.4690468 92.5957645,73.8717242 92.5167,74.2688855 C92.5019903,74.3424339 92.4836032,74.4141435 92.4670548,74.4858532 C92.3916677,74.8352081 92.3052484,75.1790468 92.2041194,75.5192081 C92.1636677,75.6571113 92.1232161,75.7931758 92.0790871,75.9292403 C91.9687645,76.273079 91.845571,76.615079 91.7095065,76.9497242 C91.6911194,76.9938532 91.674571,77.039821 91.6561839,77.0857887 C91.6104,77.1924339 91.5589161,77.2954016 91.5111097,77.4020468 C91.4118194,77.6245306 91.3088516,77.8470145 91.198529,78.0639823 C91.1213032,78.2147565 91.0404,78.3636919 90.9594968,78.5107887 C90.8454968,78.7185629 90.7241419,78.9226597 90.5991097,79.1249177 C90.5255613,79.2462726 90.4520129,79.3676274 90.3747871,79.4889823 C90.1688516,79.7960468 89.9555613,80.0975952 89.7294,80.3917887 C89.6705613,80.4671758 89.6062065,80.5407242 89.5436903,80.6161113 C89.3598194,80.8477887 89.1667548,81.07395 88.9681742,81.2927565 C88.9240452,81.3405629 88.8780774,81.3883694 88.8357871,81.4343371 C88.7787871,81.4931758 88.7254645,81.5538532 88.6703032,81.6108532 C88.5526258,81.7322081 88.4331097,81.8517242 88.3135935,81.9675629 C88.1756903,82.0981113 88.0414645,82.2304984 87.8998839,82.3573694 C87.8153032,82.4327565 87.7270452,82.5044661 87.6424645,82.5798532 C87.4549161,82.739821 87.265529,82.8997887 87.0706258,83.0505629 L87.0706258,83.0505629 L87.0540774,83.0615952 C86.5465935,83.4532403 86.0096903,83.8136274 85.4433677,84.1409177 L85.4433677,84.1409177 L79.7507226,87.4266919 L75.0620129,90.1351113 L57.6108194,100.207563 C53.0600129,102.836918 47.4519484,102.836918 42.8993032,100.207563 L42.8993032,100.207563 L25.4499484,90.1351113 L20.7594,87.4266919 L15.0685935,84.1409177 C14.5041097,83.8154661 13.9672065,83.455079 13.4597226,83.0652726 C13.4542065,83.0597565 13.4468516,83.0542403 13.4413355,83.0505629 C13.2445935,82.8997887 13.0570452,82.739821 12.8694968,82.5798532 C12.7830774,82.5063048 12.6966581,82.4327565 12.6102387,82.3555306 C12.4686581,82.2304984 12.3344323,82.09995 12.2002065,81.9694016 C12.0788516,81.8517242 11.9556581,81.7303694 11.8398194,81.6090145 C11.7828194,81.5538532 11.7294968,81.4931758 11.6761742,81.4343371 C11.6320452,81.3883694 11.5879161,81.3405629 11.5456258,81.2945952 C11.3433677,81.07395 11.1521419,80.8477887 10.9645935,80.6161113 L10.9645935,80.6161113 L10.7825613,80.3917887 C10.5545613,80.0975952 10.3394323,79.7960468 10.1371742,79.4871435 C10.0599484,79.3676274 9.98823871,79.2481113 9.91285161,79.1249177 C9.78781935,78.9244984 9.66646452,78.7204016 9.55246452,78.5107887 C9.47156129,78.3618532 9.39065806,78.2147565 9.31343226,78.0639823 C9.20127097,77.8470145 9.09830323,77.6245306 8.9990129,77.4020468 C8.95120645,77.2954016 8.89972258,77.1924339 8.85559355,77.0857887 L8.85559355,77.0857887 L8.82782903,77.0170669 L8.82782903,77.0170669 Z M57.6106355,53.9621758 C53.059829,51.332821 47.4517645,51.332821 42.8991194,53.9621758 L42.8991194,53.9621758 L20.7592161,66.7430468 L17.916571,68.3850145 L20.7594,70.0269823 L25.4499484,72.7354016 L40.5181742,81.4343371 L42.8993032,82.8096919 C47.4519484,85.4372081 53.0600129,85.4372081 57.6108194,82.8096919 L57.6108194,82.8096919 L59.9919484,81.4343371 L75.0620129,72.7354016 L79.7507226,70.0269823 L82.5952065,68.3850145 L79.7505387,66.7430468 Z M42.8993032,10.4632694 C47.4519484,7.83575323 53.0600129,7.83575323 57.6108194,10.4632694 L57.6108194,10.4632694 L79.7507226,23.2441403 L85.4433677,26.5317532 C89.9960129,29.1611081 92.8000452,34.0171403 92.8000452,39.2740113 L92.8000452,39.2740113 L92.8000452,53.9983984 C92.8000452,54.4488823 92.7706258,54.89385 92.7320129,55.3351403 C92.2999161,50.6041403 89.6080452,46.3346565 85.4433677,43.9314629 L85.4433677,43.9314629 L79.7507226,40.64385 L57.6108194,27.862979 C53.0600129,25.2336242 47.4519484,25.2336242 42.8993032,27.862979 L42.8993032,27.862979 L20.7594,40.64385 L15.0685935,43.9314629 C10.9039161,46.3346565 8.21020645,50.6041403 7.77994839,55.3351403 C7.73765806,54.89385 7.71191613,54.4488823 7.71191613,53.9983984 L7.71191613,53.9983984 L7.71191613,39.2740113 C7.71191613,34.0171403 10.5159484,29.1611081 15.0685935,26.5317532 L15.0685935,26.5317532 L20.7594,23.2441403 Z"/>
  </g>
</svg>
