<svg xmlns="http://www.w3.org/2000/svg" width="114" height="114" viewBox="0 0 114 114">
  <defs>
    <linearGradient id="color-a" x1="2.064%" x2="102.997%" y1="0%" y2="100%">
      <stop offset="0%" stop-color="#289CE1"/>
      <stop offset="100%" stop-color="#6C4FD0"/>
    </linearGradient>
  </defs>
  <g fill="none" fill-rule="evenodd" transform="translate(7 2)">
    <path fill="url(#color-a)" d="M90.4686393,20.5158934 L59.2758197,2.50841803 C53.4819836,-0.836139344 46.3470492,-0.836139344 40.5513934,2.50841803 L9.36039344,20.5158934 C3.56837705,23.8604508 0,30.041877 0,36.7309918 L0,72.7477623 C0,79.4386967 3.56837705,85.6183033 9.36039344,88.9628607 L40.5513934,106.972156 C46.3470492,110.316713 53.4819836,110.316713 59.2758197,106.972156 L90.4686393,88.9628607 C96.2588361,85.6183033 99.8290328,79.4386967 99.8290328,72.7477623 L99.8290328,36.7309918 C99.8290328,30.041877 96.2588361,23.8604508 90.4686393,20.5158934 L90.4686393,20.5158934 Z"/>
    <path fill="#FFF" d="M91.4294262,72.3838279 C91.3984918,72.4475164 91.3620984,72.5057459 91.3311639,72.5694344 C91.1746721,72.8842377 90.9999836,73.188123 90.8362131,73.4992869 C90.470459,74.2016803 90.0992459,74.9004344 89.6970984,75.5809918 C89.4750984,75.9540246 89.238541,76.3161393 89.0074426,76.6837131 C88.6307705,77.2823852 88.2486393,77.8792377 87.8446721,78.4578934 C87.5826393,78.8363852 87.3096885,79.2057787 87.034918,79.5769918 C86.6309508,80.1247131 86.2160656,80.6633361 85.786623,81.1928607 C85.4936557,81.5549754 85.1952295,81.9134508 84.8895246,82.2701066 C84.4437049,82.7850738 83.9851475,83.2873033 83.5193115,83.7840738 C83.2045082,84.1170738 82.8951639,84.4518934 82.5694426,84.7757951 C82.0653934,85.2798443 81.5431475,85.763877 81.0172623,86.2442705 C80.7042787,86.5281393 80.4003934,86.8229262 80.0819508,87.0976967 C79.4559836,87.6381393 78.8063607,88.1512869 78.1530984,88.6571557 C77.9092623,88.8464016 77.6763443,89.0483852 77.4306885,89.2321721 C76.5226721,89.9072705 75.5891803,90.5496148 74.6320328,91.1573852 C74.4009344,91.3047787 74.1552787,91.4339754 73.9187213,91.5777295 C73.1835738,92.0271885 72.4393279,92.4657295 71.6787049,92.8751557 C71.3056721,93.0735 70.9217213,93.2518279 70.5450492,93.4392541 C69.8972459,93.7649754 69.2494426,94.083418 68.5834426,94.3782049 C68.159459,94.5638115 67.7281967,94.7366803 67.2969344,94.9131885 C66.6582295,95.171582 66.0122459,95.4226967 65.3608033,95.6537951 C64.9058852,95.8157459 64.4491475,95.9667787 63.9887705,96.1141721 C63.3336885,96.3234344 62.6713279,96.5163197 62.0016885,96.6964672 C61.5358525,96.8238443 61.0700164,96.947582 60.600541,97.0604016 C59.9072459,97.2223525 59.2048525,97.3624672 58.4988197,97.4953033 C58.0402623,97.5808279 57.5853443,97.6736311 57.1231475,97.746418 C56.3461475,97.8683361 55.5564098,97.9556803 54.7666721,98.0375656 C54.3663443,98.079418 53.9714754,98.1358279 53.5693279,98.168582 C52.397459,98.2595656 51.2146721,98.3123361 50.0191475,98.3141557 C49.9936721,98.3141557 49.9700164,98.3159754 49.9427213,98.3159754 C48.7690328,98.3159754 47.6062623,98.2686639 46.4544098,98.1831393 C46.0868361,98.1540246 45.7283607,98.1012541 45.3644262,98.0648607 C44.5856066,97.9866148 43.8086066,97.9083689 43.0425246,97.7955492 C42.6039836,97.730041 42.174541,97.6390574 41.7396393,97.5608115 C41.059082,97.4388934 40.3785246,97.3151557 39.7088852,97.164123 C39.2503279,97.0604016 38.8026885,96.9366639 38.3495902,96.8202049 C37.7163443,96.6546148 37.084918,96.4890246 36.4625902,96.2997787 C36.0040328,96.1578443 35.5527541,96.0031721 35.1014754,95.8503197 C34.4991639,95.6446967 33.9004918,95.4354344 33.310918,95.2061557 C32.8596393,95.0332869 32.417459,94.8495 31.9770984,94.6620738 C31.4002623,94.416418 30.8288852,94.1653033 30.2666066,93.8978115 C29.8280656,93.6921885 29.398623,93.4811066 28.971,93.2627459 C28.4178197,92.9770574 27.8737377,92.6822705 27.3314754,92.3783852 C26.9165902,92.1436475 26.5035246,91.9070902 26.095918,91.6614344 C25.5609344,91.3375328 25.0405082,90.9990738 24.5182623,90.6551557 C24.1288525,90.3949426 23.7358033,90.1383689 23.3518525,89.8672377 C22.8350656,89.5014836 22.3328361,89.1175328 21.8324262,88.7317623 C21.4703115,88.4533525 21.1045574,88.1804016 20.7497213,87.8910738 C20.2438525,87.4761885 19.752541,87.0394672 19.2648689,86.6009262 C18.9427869,86.3152377 18.6116066,86.0368279 18.3004426,85.742041 C17.7781967,85.2489098 17.2796066,84.7339426 16.7828361,84.2189754 C16.5262623,83.9533033 16.2569508,83.6985492 16.0076557,83.4255984 C15.3434754,82.7086475 14.7084098,81.9644016 14.0933607,81.2055984 C14.0242131,81.1200738 13.9496066,81.0418279 13.8822787,80.958123 C13.2017213,80.1065164 12.553918,79.2294344 11.9334098,78.3323361 C11.7478033,78.0593852 11.5822131,77.7755164 11.4002459,77.5025656 C10.9817213,76.8656803 10.5668361,76.2269754 10.1792459,75.5700738 C9.96634426,75.2115984 9.77527869,74.8403852 9.57329508,74.4728115 C9.30944262,73.997877 9.05104918,73.5174836 8.80357377,73.0316311 C8.17396721,71.7960738 7.58257377,70.5368607 7.06760656,69.2394344 C10.5249836,66.1769262 14.5864918,63.7167295 21.1081967,63.7167295 C25.1005574,63.7167295 28.1485082,64.6611393 30.7215246,66.0768443 C28.3231967,59.6843361 25.3698689,53.102582 21.8524426,47.5562213 C21.4411967,46.9120574 21.5885902,46.0549918 22.2145574,45.6182705 C33.7148852,37.5880574 49.9427213,34.8840246 49.9427213,34.8840246 C49.9427213,34.8840246 66.1705574,37.5880574 77.6690656,45.6182705 C78.2986721,46.0549918 78.4442459,46.9120574 78.0348197,47.5562213 C73.26,55.0823852 69.5151148,64.5192049 66.8074426,72.8023525 L67.2423443,72.3656311 C71.5677049,68.0420902 75.8930656,63.7167295 84.5419672,63.7167295 C88.4342459,63.7167295 91.4512623,64.5938115 93.9860656,65.9512869 C93.2909508,68.1749262 92.4229672,70.3185 91.4148689,72.3838279 L91.4294262,72.3838279 Z M26.8765574,27.1122049 C26.8765574,26.5845 27.2040984,26.1113852 27.7008689,25.9257787 C42.0398852,20.5486475 57.8455574,20.5486475 72.1882131,25.9257787 C72.6813443,26.1113852 73.0088852,26.5845 73.0088852,27.1122049 L73.0088852,36.2888115 C68.8327377,34.2780738 64.6711475,32.7914016 61.1810164,31.7250738 C58.264082,30.8334344 55.7292787,30.2074672 53.9132459,29.8035 C53.0034098,29.5996967 52.2682623,29.4523033 51.7514754,29.354041 C51.493082,29.3030902 51.287459,29.2666967 51.1437049,29.2394016 L50.9726557,29.2084672 L49.9427213,29.0392377 L48.7417377,29.2394016 C48.3068361,29.3176475 47.3387705,29.4996148 45.9740164,29.8035 C44.1561639,30.2074672 41.6213607,30.8334344 38.7044262,31.7250738 C35.2142951,32.7914016 31.0527049,34.2780738 26.8765574,36.2888115 L26.8765574,27.1122049 Z M38.4096393,10.5277131 C38.4096393,9.65790984 38.9009508,8.86271311 39.6797705,8.47512295 C42.9096885,6.85743443 46.4271148,6.05131967 49.9427213,6.05131967 C53.4601475,6.05131967 56.9757541,6.85743443 60.2074918,8.47512295 C60.9863115,8.86271311 61.4758033,9.65790984 61.4758033,10.5277131 L61.4758033,17.0949098 C53.8422787,15.8029426 46.0449836,15.8029426 38.4096393,17.0949098 L38.4096393,10.5277131 Z"/>
    <path fill="#5469D5" d="M49.9430852,75.2499934 C49.9430852,75.2499934 55.7096262,49.2996492 49.9430852,40.6507475 C44.1765443,49.2996492 49.9430852,75.2499934 49.9430852,75.2499934"/>
  </g>
</svg>
