<svg xmlns="http://www.w3.org/2000/svg" width="114" height="114" viewBox="0 0 114 114">
  <defs>
    <linearGradient id="color-a" x1="2.064%" x2="102.997%" y1="0%" y2="100%">
      <stop offset="0%" stop-color="#289CE1"/>
      <stop offset="100%" stop-color="#006AB0"/>
    </linearGradient>
  </defs>
  <g fill="none" fill-rule="evenodd" transform="translate(7 2)">
    <path fill="url(#color-a)" d="M91.4666129,20.7429435 L59.9309032,2.53604032 C54.0727742,-0.845346774 46.8576774,-0.845346774 41.0013871,2.53604032 L9.46383871,20.7429435 C3.60754839,24.1243306 -2.13162821e-14,30.3741048 -2.13162821e-14,37.136879 L-2.13162821e-14,73.5506855 C-2.13162821e-14,80.3134597 3.60754839,86.5632339 9.46383871,89.9464597 L41.0013871,108.151524 C46.8576774,111.53475 54.0727742,111.53475 59.9309032,108.151524 L91.4666129,89.9464597 C97.3229032,86.5632339 100.930452,80.3134597 100.930452,73.5506855 L100.930452,37.136879 C100.930452,30.3741048 97.3229032,24.1243306 91.4666129,20.7429435"/>
    <path fill="#FFF" d="M6.34888065,37.1947984 C6.34888065,35.46825 8.26481613,34.67025 9.7596871,35.5307661 L9.7596871,35.5307661 L23.9159129,43.7038306 C24.8113645,44.2241855 25.2563323,45.2520242 25.2563323,46.2872177 L25.2563323,46.2872177 L25.2563323,64.4830887 C25.2563323,67.8607984 27.0582677,70.9810887 29.9854935,72.6708629 L29.9854935,72.6708629 L45.7395581,81.7669597 C46.6423645,82.2873145 47.3134935,83.1882823 47.3134935,84.2308306 L47.3134935,84.2308306 L47.3134935,100.558573 C47.3134935,102.288798 45.6604935,103.553831 44.1619452,102.687798 L44.1619452,102.687798 L12.6538161,84.4974435 C8.7539129,82.2450242 6.34888065,78.0803468 6.34888065,73.5773468 L6.34888065,73.5773468 Z M91.1738903,35.5316855 C92.6669226,34.6656532 94.5828581,35.4691694 94.5828581,37.193879 L94.5828581,37.193879 L94.5828581,73.5764274 C94.5828581,78.0812661 92.1815032,82.2441048 88.2779226,84.4946855 L88.2779226,84.4946855 L56.7697935,102.68504 C55.2712452,103.551073 53.6182452,102.289718 53.6182452,100.557653 L53.6182452,100.557653 L53.6182452,84.2299113 C53.6182452,83.1892016 54.2912129,82.2882339 55.1940194,81.767879 L55.1940194,81.767879 L70.9499226,72.6681048 C73.8753097,70.9801694 75.6772452,67.859879 75.6772452,64.4821694 L75.6772452,64.4821694 L75.6772452,46.2881371 C75.6772452,45.2511048 76.1185355,44.2232661 77.0158258,43.7029113 L77.0158258,43.7029113 Z M48.8901871,34.4617403 C49.8647032,33.8990952 51.0672194,33.8990952 52.0417355,34.4617403 L52.0417355,34.4617403 L67.7994774,43.5578371 C68.7739935,44.122321 69.3752516,45.1611919 69.3752516,46.2864823 L69.3752516,46.2864823 L69.3752516,64.4823532 C69.3752516,65.6094823 68.7739935,66.6483532 67.7994774,67.2128371 L67.7994774,67.2128371 L52.0417355,76.3089339 C51.0672194,76.8697403 49.8647032,76.8697403 48.8901871,76.3089339 L48.8901871,76.3089339 L33.1361226,67.2128371 C32.1597677,66.6483532 31.5585097,65.6094823 31.5585097,64.4823532 L31.5585097,64.4823532 L31.5585097,46.2864823 C31.5585097,45.1611919 32.1597677,44.122321 33.1361226,43.5578371 L33.1361226,43.5578371 Z M44.1606581,8.08361129 C48.0605613,5.83119194 52.8706258,5.83119194 56.7723677,8.08361129 L56.7723677,8.08361129 L88.2786581,26.2758048 C89.7808839,27.1418371 89.514271,29.2122242 88.0102065,30.0800952 L88.0102065,30.0800952 L73.8852387,38.2366113 C72.9787548,38.7588048 71.8571419,38.6227403 70.9506581,38.0987081 L70.9506581,38.0987081 L55.1929161,29.0026113 C52.267529,27.3146758 48.6618194,27.3146758 45.7401097,29.0026113 L45.7401097,29.0026113 L29.9823677,38.0987081 C29.0777226,38.6227403 27.9524323,38.7588048 27.0477871,38.2366113 L27.0477871,38.2366113 L12.9209806,30.0800952 C11.4205935,29.2122242 11.1521419,27.1418371 12.6543677,26.2758048 L12.6543677,26.2758048 Z"/>
  </g>
</svg>
