<svg xmlns="http://www.w3.org/2000/svg" width="114" height="114" viewBox="0 0 114 114">
  <defs>
    <linearGradient id="color-a" x1="2.063%" x2="102.998%" y1="0%" y2="100%">
      <stop offset="0%" stop-color="#D84AD0"/>
      <stop offset="100%" stop-color="#6C4FD0"/>
    </linearGradient>
  </defs>
  <g fill="none" fill-rule="evenodd" transform="translate(7 2)">
    <path fill="url(#color-a)" d="M91.4666129,20.7429435 L59.9327419,2.53604032 C54.0746129,-0.845346774 46.8576774,-0.845346774 41.0013871,2.53604032 L9.46567742,20.7429435 C3.6093871,24.1243306 -1.42108547e-14,30.3741048 -1.42108547e-14,37.136879 L-1.42108547e-14,73.5506855 C-1.42108547e-14,80.3134597 3.6093871,86.5632339 9.46567742,89.9464597 L41.0013871,108.151524 C46.8576774,111.532911 54.0746129,111.532911 59.9327419,108.151524 L91.4666129,89.9464597 C97.3247419,86.5632339 100.930452,80.3134597 100.930452,73.5506855 L100.930452,37.136879 C100.930452,30.3741048 97.3247419,24.1243306 91.4666129,20.7429435"/>
    <path fill="#FFF" d="M75.4961323,51.1537306 C75.4961323,49.4143113 77.3826484,48.3257952 78.8903903,49.1955048 L78.8903903,49.1955048 L91.8238742,56.6643435 C93.2893258,57.51015 94.1921323,59.0730532 94.1921323,60.7628274 L94.1921323,60.7628274 L94.1921323,75.1047629 C94.1921323,78.5357952 92.3626161,81.7020532 89.3949387,83.4175694 L89.3949387,83.4175694 L55.2611323,103.123021 C52.2952935,104.838537 48.6362613,104.838537 45.6667452,103.123021 L45.6667452,103.123021 L35.1640355,97.0589565 C33.6544548,96.1874081 33.6544548,94.0122145 35.1640355,93.1443435 L35.1640355,93.1443435 L72.2103581,71.7527952 C74.243971,70.576021 75.4961323,68.4081823 75.4961323,66.0583113 L75.4961323,66.0583113 Z M22.0415323,21.3201145 C23.5492742,20.4504048 25.4321129,21.538921 25.4321129,23.2783403 L25.4321129,23.2783403 L25.4321129,66.0595984 C25.4321129,68.4076306 26.6861129,70.5791468 28.7178871,71.7522435 L28.7178871,71.7522435 L41.6274677,79.2045339 C43.1352097,80.0742435 43.1352097,82.2494371 41.6274677,83.1209855 L41.6274677,83.1209855 L28.6939839,90.5898242 C27.2266935,91.4356306 25.4229194,91.4356306 23.9574677,90.5898242 L23.9574677,90.5898242 L11.5351452,83.4188565 C8.56746774,81.7033403 6.73795161,78.5352435 6.73795161,75.10605 L6.73795161,75.10605 L6.73795161,35.6951468 C6.73795161,32.2677919 8.56746774,29.0996952 11.5351452,27.384179 L11.5351452,27.384179 Z M45.6680323,7.6794629 C48.6375484,5.96762419 52.2929032,5.96762419 55.2624194,7.6794629 L55.2624194,7.6794629 L89.3943871,27.3849145 C92.3639032,29.1004306 94.1915806,32.2666887 94.1915806,35.6958823 L94.1915806,35.6958823 L94.1915806,47.8276887 C94.1915806,49.5652694 92.3087419,50.6556242 90.8028387,49.7840758 L90.8028387,49.7840758 L53.751,28.3925274 C51.7173871,27.2194306 49.2112258,27.2194306 47.1794516,28.3925274 L47.1794516,28.3925274 L35.112,35.3593984 C33.6024194,36.2327855 31.7214194,35.1442694 31.7214194,33.4030113 L31.7214194,33.4030113 L31.7214194,18.4653339 C31.7214194,16.773721 32.6242258,15.2126565 34.0896774,14.3631726 L34.0896774,14.3631726 Z"/>
  </g>
</svg>
