<svg xmlns="http://www.w3.org/2000/svg" width="114" height="114" viewBox="0 0 114 114">
  <defs>
    <linearGradient id="color-a" x1="8.767%" x2="91.233%" y1="0%" y2="100%">
      <stop offset="0%" stop-color="#F4AB00"/>
      <stop offset="100%" stop-color="#FC5457"/>
    </linearGradient>
  </defs>
  <g fill="none" fill-rule="evenodd" transform="translate(7 2)">
    <path fill="url(#color-a)" d="M91.8251613,21.3101855 L58.9490323,2.32918548 C53.5708065,-0.776395161 46.9459355,-0.776395161 41.5677097,2.32918548 L8.68974194,21.3101855 C3.31151613,24.4139274 2.84217094e-14,30.1525403 2.84217094e-14,36.3637016 L2.84217094e-14,74.3257016 C2.84217094e-14,80.5350242 3.31151613,86.2736371 8.68974194,89.3792177 L41.5677097,108.360218 C46.9459355,111.46396 53.5708065,111.46396 58.9490323,108.360218 L91.8251613,89.3792177 C97.2033871,86.2736371 100.516742,80.5350242 100.516742,74.3257016 L100.516742,36.3637016 C100.516742,30.1525403 97.2033871,24.4139274 91.8251613,21.3101855"/>
    <path fill="#FFF" d="M53.8456935,12.601321 C53.8456935,10.6853855 55.9179194,9.48654677 57.5782742,10.4426758 L57.5782742,10.4426758 L57.6150484,10.4629016 L66.2441129,15.4458048 C68.0920161,16.5122565 69.2283387,18.4815145 69.2283387,20.6144177 L69.2283387,20.6144177 L69.2283387,90.0716758 C69.2283387,92.204579 68.0920161,94.1756758 66.2441129,95.2421274 L66.2441129,95.2421274 L57.6150484,100.225031 C55.9381452,101.190353 53.8456935,99.9804823 53.8456935,98.0461597 L53.8456935,98.0461597 Z M42.9329516,28.1115726 C44.3653065,27.2878306 46.154371,28.3211855 46.154371,29.9741855 L46.154371,29.9741855 L46.154371,98.3447661 C46.154371,100.014315 44.3469194,101.056863 42.9016935,100.225766 L42.9016935,100.225766 L33.7541129,94.9449919 C31.9080484,93.8785403 30.7680484,91.9074435 30.7680484,89.7727016 L30.7680484,89.7727016 L30.7680484,38.5811855 C30.7680484,36.4482823 31.9080484,34.4771855 33.7541129,33.4107339 L33.7541129,33.4107339 L42.9016935,28.1299597 Z M76.9209484,25.8608081 C76.9209484,23.9706145 78.9674323,22.7901629 80.6020452,23.7352597 L80.6020452,23.7352597 L85.4470452,26.5319371 C90.001529,29.1612919 92.8055613,34.0173242 92.8055613,39.2741952 L92.8055613,39.2741952 L92.8055613,71.4130016 C92.8055613,76.6717113 90.001529,81.5277435 85.4470452,84.1552597 L85.4470452,84.1552597 L80.6020452,86.9519371 C78.9674323,87.8970339 76.9209484,86.7165823 76.9209484,84.8282274 L76.9209484,84.8282274 Z M19.3961806,24.0349694 C21.0307935,23.0898726 23.0754387,24.2703242 23.0754387,26.158679 L23.0754387,26.158679 L23.0754387,84.5303565 C23.0754387,86.4187113 21.0307935,87.5991629 19.3961806,86.6540661 L19.3961806,86.6540661 L15.0678581,84.1552597 C10.5152129,81.5277435 7.71118065,76.6717113 7.71118065,71.4130016 L7.71118065,71.4130016 L7.71118065,39.2760339 C7.71118065,34.0173242 10.5152129,29.1612919 15.0678581,26.5319371 L15.0678581,26.5319371 Z"/>
  </g>
</svg>
