<svg xmlns="http://www.w3.org/2000/svg" width="114" height="114" viewBox="0 0 114 114">
  <defs>
    <linearGradient id="color-a" x1="41.138%" x2="53.307%" y1="5.193%" y2="82.099%">
      <stop offset="0%" stop-color="#77CDFD"/>
      <stop offset="100%" stop-color="#289ADF"/>
    </linearGradient>
    <linearGradient id="color-b" x1=".003%" x2="100.001%" y1="50%" y2="50%">
      <stop offset="0%" stop-color="#0069AF"/>
      <stop offset="100%" stop-color="#0069AF" stop-opacity="0"/>
    </linearGradient>
    <linearGradient id="color-c" x1="37.596%" x2="60.29%" y1="11.339%" y2="59.277%">
      <stop offset="0%" stop-color="#289ADF"/>
      <stop offset="100%" stop-color="#0069AF"/>
    </linearGradient>
  </defs>
  <g fill="none" fill-rule="evenodd" transform="translate(2 2)">
    <path fill="url(#color-a)" d="M53.6326238,12.0384653 C53.5863366,12.0771287 53.5422277,12.1168812 53.4997525,12.1593564 L53.4997525,12.1593564 L44.7166337,20.8793069 C43.2419802,22.344703 43.3906436,21.8181188 44.4193069,23.4566832 L44.4193069,23.4566832 C46.0371782,26.0324257 46.8463861,28.7355941 46.8463861,31.565099 L46.8463861,31.565099 L46.8463861,77.8821782 C46.8463861,95.1690594 60.9890099,109.161386 78.4005941,109.161386 L78.4005941,109.161386 C95.8110891,109.161386 109.941733,95.1690594 109.941733,77.8821782 L109.941733,77.8821782 C109.941733,60.5942079 95.8110891,46.5937129 78.4005941,46.5937129 L78.4005941,46.5937129 L63.1601485,46.5937129 L63.1601485,62.7571782 L78.4185644,62.7571782 C86.8335644,62.7571782 93.6546535,69.5259901 93.6546535,77.8821782 L93.6546535,77.8821782 C93.6546535,86.2378218 86.8155941,93.009901 78.4005941,93.009901 L78.4005941,93.009901 C69.9850495,93.009901 63.1557921,86.1659406 63.1557921,77.8097525 L63.1557921,77.8097525 L63.1601485,31.565099 C63.1601485,24.6383663 60.8125743,17.6495545 56.5955446,12.2884158 L56.5955446,12.2884158 C55.7738119,11.3218317 55.5156931,10.8638608 55.1993069,10.8638608 L55.1993069,10.8638608 C54.9014356,10.8638608 54.5523762,11.2695545 53.6326238,12.0384653"/>
    <polygon fill="url(#color-b)" points="63.132 46.71 63.132 62.884 79.187 62.884 79.187 50.469 79.187 46.71"/>
    <path fill="url(#color-c)" d="M0.309306931,31.8961881 C0.309306931,49.1939604 14.3844059,63.2674257 31.684901,63.2674257 L31.684901,63.2674257 L42.7823762,63.2674257 L42.7823762,47.0593069 L31.684901,47.0593069 C23.3221782,47.0593069 16.5185149,40.2567327 16.5185149,31.8961881 L16.5185149,31.8961881 C16.5185149,23.5345545 23.3221782,16.7319802 31.684901,16.7319802 L31.684901,16.7319802 C35.0431683,16.7319802 37.9794059,17.6070792 40.4936139,19.3572772 L40.4936139,19.3572772 L51.9635644,7.89658416 C46.2571782,2.98089109 39.4976238,0.523861386 31.684901,0.523861386 L31.684901,0.523861386 C14.3844059,0.523861386 0.309306931,14.5973267 0.309306931,31.8961881"/>
  </g>
</svg>
