<svg xmlns="http://www.w3.org/2000/svg" width="114" height="114" viewBox="0 0 114 114">
  <g fill="none" fill-rule="evenodd" transform="translate(2 18)">
    <g transform="translate(28.854 29.296)">
      <path fill="#73C3D5" d="M9.02110553,3.07336683 C12.3708543,3.07336683 15.0904523,5.78190955 15.0904523,9.13165829 C15.0904523,12.481407 12.3708543,15.1899497 9.02110553,15.1899497 C5.67135678,15.1899497 2.96281407,12.481407 2.96281407,9.13165829 C2.96281407,5.78190955 5.67135678,3.07336683 9.02110553,3.07336683"/>
      <path fill="#FF7F40" fill-rule="nonzero" d="M9.02110553,0.0994974874 C11.519598,0.0994974874 13.7748744,1.10552764 15.4110553,2.74170854 C17.0472362,4.37788945 18.0532663,6.63316583 18.0532663,9.13165829 C18.0532663,11.6190955 17.0361809,13.8854271 15.4110553,15.521608 C13.7748744,17.1577889 11.519598,18.1638191 9.02110553,18.1638191 C6.53366834,18.1638191 4.26733668,17.1577889 2.64221106,15.521608 C1.00603015,13.8854271 6.28419706e-15,11.6301508 6.28419706e-15,9.13165829 C6.28419706e-15,6.64422111 1.00603015,4.37788945 2.64221106,2.74170854 C4.26733668,1.10552764 6.52261307,0.0994974874 9.02110553,0.0994974874 M14.5708543,3.57085427 C13.1447236,2.14472362 11.1879397,1.27135678 9.01005025,1.27135678 C6.84321608,1.27135678 4.87537688,2.14472362 3.44924623,3.57085427 C2.02311558,4.99698492 1.14974874,6.96482412 1.14974874,9.13165829 C1.14974874,11.2984925 2.02311558,13.2663317 3.44924623,14.6924623 C4.87537688,16.118593 6.84321608,16.9919598 9.01005025,16.9919598 C11.1879397,16.9919598 13.1447236,16.118593 14.5708543,14.6924623 C15.9969849,13.2663317 16.8704542,11.2984925 16.8704542,9.13165829 C16.881407,6.96482412 15.9969849,4.99698492 14.5708543,3.57085427"/>
      <g transform="translate(34.16)">
        <path fill="#73C3D5" d="M9.0321608,3.07336683 C12.3819095,3.07336683 15.0904523,5.78190955 15.0904523,9.13165829 C15.0904523,12.481407 12.3819095,15.1899497 9.0321608,15.1899497 C5.68241206,15.1899497 2.97386935,12.481407 2.97386935,9.13165829 C2.97386935,5.78190955 5.69346734,3.07336683 9.0321608,3.07336683"/>
        <path fill="#FF7F40" fill-rule="nonzero" d="M9.0321608,0.0994974874 C11.519598,0.0994974874 13.7859296,1.10552764 15.4110553,2.74170854 C17.0472362,4.37788945 18.0532663,6.63316583 18.0532663,9.13165829 C18.0532663,11.6190955 17.0472362,13.8854271 15.4110553,15.521608 C13.7748744,17.1577889 11.519598,18.1638191 9.0321608,18.1638191 C6.53366834,18.1638191 4.27839196,17.1577889 2.64221106,15.521608 C1.00603015,13.8854271 1.25683941e-14,11.6301508 1.25683941e-14,9.13165829 C1.25683941e-14,6.64422111 1.01708543,4.37788945 2.64221106,2.74170854 C4.27839196,1.10552764 6.53366834,0.0994974874 9.0321608,0.0994974874 M14.5929648,3.57085427 C13.1668342,2.14472362 11.2100503,1.27135678 9.0321608,1.27135678 C6.85427136,1.27135678 4.89748744,2.14472362 3.47135678,3.57085427 C2.04522613,4.99698492 1.1718593,6.96482412 1.1718593,9.13165829 C1.1718593,11.2984925 2.05628141,13.2663317 3.47135678,14.6924623 C4.89748744,16.118593 6.85427136,16.9919598 9.0321608,16.9919598 C11.198995,16.9919598 13.1668342,16.118593 14.5929648,14.6924623 C16.0190955,13.2663317 16.8924623,11.2984925 16.8924623,9.13165829 C16.8924623,6.96482412 16.0190955,4.99698492 14.5929648,3.57085427"/>
      </g>
    </g>
    <path fill="#73C3D5" d="M109.81206,4.42211055 C107.733668,7.86030151 103.908543,13.4653266 103.101508,14.9356784 L102.559799,8.53467337 L92.0351759,19.6452261 C88.4201005,12.7798995 81.8090452,7.71658291 73.9708543,6.2241206 C72.0030151,2.71959799 64.0432161,0.198994975 55.8623116,0.0110552764 C55.5638191,0 55.2653266,0 54.9557789,0 C54.6572864,0 54.3477387,0 54.0492462,0.0110552764 C45.8683417,0.198994975 37.9085427,2.71959799 35.9407035,6.2241206 C28.0914573,7.71658291 21.480402,12.7798995 17.8763819,19.6452261 L7.35175879,8.53467337 L6.81005025,14.9356784 C6.00301508,13.4542714 2.18894472,7.86030151 0.110552764,4.42211055 C-0.453266332,6.45628141 1.35979899,22.2211055 1.85728643,24.2552764 C2.34371859,26.2562814 5.63819095,40.0090452 8.15879397,39.7768844 C8.51256281,39.6442211 9.18693467,36.8693467 10.0271357,34.3819095 L15.7979899,45.1165829 C18.5175879,55.9286432 27.3396985,64.3859296 38.361809,66.5527638 C38.4723618,65.7678392 38.6603015,64.9829146 38.9477387,64.2753769 C26.6432161,61.9316583 17.2683417,51.0643216 17.2683417,38.1075377 L17.2683417,31.5959799 C17.2683417,20.4633166 25.1286432,11.0773869 35.5869347,8.71155779 C35.6090452,8.8 35.6311558,8.87738693 35.6643216,8.95477387 L41.8221106,25.5266332 C42.5959799,27.6050251 43.9005025,29.4070352 46.3658291,29.4070352 L54.9557789,29.4070352 L63.5457286,29.4070352 C66.0110553,29.4070352 67.3155779,27.6050251 68.0894472,25.5266332 L74.2472362,8.95477387 C74.280402,8.87738693 74.3025126,8.78894472 74.3246231,8.71155779 C84.7718593,11.0773869 92.6432161,20.4633166 92.6432161,31.5959799 L92.6432161,38.1075377 C92.6432161,51.0643216 83.2683417,61.9316583 70.9638191,64.2753769 C71.2623116,64.9829146 71.4502513,65.7678392 71.5497487,66.5527638 C82.5718593,64.3859296 91.3939698,55.9396985 94.1135678,45.1165829 L99.8844221,34.3819095 C100.724623,36.8693467 101.41005,39.6331658 101.752764,39.7768844 C104.273367,40.0090452 107.567839,26.2562814 108.054271,24.2552764 C108.562814,22.2211055 110.375879,6.44522613 109.81206,4.42211055 Z M8.66733668,28.6 L7.6281407,35.3768844 C4.5879397,26.598995 2.9959799,19.9768844 1.74673367,10.5577889 L8.1919598,22.3537688 L9.37487437,13.4321608 L16.8040201,21.9336683 C15.5879397,24.918593 14.9135678,28.1798995 14.9135678,31.5849246 L14.9135678,38.0964824 C14.9135678,38.4723618 14.9246231,38.8371859 14.9356784,39.2130653 L8.66733668,28.6 Z M72.0472362,8.12562814 L65.8894472,24.6974874 C65.4361809,25.9025126 64.8281407,27.041206 63.5457286,27.041206 L54.9778894,27.041206 L46.4100503,27.041206 C45.1165829,27.041206 44.5085427,25.9025126 44.0663317,24.6974874 L37.8753769,8.12562814 C37.1457286,6.15778894 46.1889447,3.49346734 54.9557789,3.42713568 C63.7336683,3.49346734 72.7768844,6.15778894 72.0472362,8.12562814 Z M102.294472,35.3768844 L101.255276,28.6 L94.9648241,39.2130653 C94.9758794,38.8371859 94.9869347,38.4723618 94.9869347,38.0964824 L94.9869347,31.5849246 C94.9869347,28.1798995 94.3125628,24.918593 93.0964824,21.9336683 L100.525628,13.4321608 L101.708543,22.3537688 L108.153769,10.5577889 C106.926633,19.9768844 105.334673,26.598995 102.294472,35.3768844 Z"/>
    <path fill="#73C3D5" fill-rule="nonzero" d="M65.8673367,57.6311558 L54.9668342,57.6311558 L44.0663317,57.6311558 C36.2834171,57.6311558 32.1376884,53.8060302 30.7226131,52.1919598 L29.561809,53.1648241 C31.1648241,54.9889447 35.719598,59.1346734 44.0663317,59.1346734 L54.9668342,59.1346734 L65.8673367,59.1346734 C74.2030151,59.1346734 78.7688442,54.9889447 80.3718593,53.1648241 L79.2110553,52.1919598 C77.7959799,53.8060302 73.639196,57.6311558 65.8673367,57.6311558 Z"/>
    <path fill="#FF7F40" d="M68.8743719,61.6773869 C67.6030151,61.0140704 66.198995,61.0693467 64.8834171,61.5778894 C63.5015075,62.1085427 62.119598,62.8492462 60.8261307,63.5678392 C60.1738693,63.921608 59.521608,64.2974874 58.880402,64.6623116 C58.239196,64.2974874 57.4984925,64.0874372 56.7135678,64.0874372 L53.2201005,64.0874372 C52.4351759,64.0874372 51.6944724,64.2974874 51.0532663,64.6623116 C50.4120603,64.2864322 49.759799,63.921608 49.1075377,63.5678392 C47.8140704,62.8492462 46.4432161,62.1085427 45.0502513,61.5778894 C43.7346734,61.0693467 42.3306533,61.0251256 41.0592965,61.6773869 C38.118593,63.1919598 37.6763819,67.4150754 37.919598,70.3336683 C38.1517588,73.2522613 39.3015075,77.9065327 42.6954774,78.5698492 C43.281407,78.680402 43.8673367,78.6582915 44.4422111,78.5035176 C46.6422111,77.9175879 49.118593,76.679397 51.3517588,75.3085427 C51.9266332,75.5738693 52.5567839,75.7396985 53.2311558,75.7396985 L56.7135678,75.7396985 C57.3879397,75.7396985 58.0180905,75.5849246 58.5929648,75.319598 C60.8150754,76.6904523 63.3025126,77.9175879 65.4914573,78.5145729 C66.0663317,78.6693467 66.6522613,78.6914573 67.238191,78.5809045 C70.6321608,77.9175879 71.7819095,73.2633166 72.0140704,70.3447236 C72.2462312,67.4150754 71.8150754,63.1919598 68.8743719,61.6773869 Z M43.8231156,76.2482412 C39.6884422,77.3537688 38.1849246,61.4562814 44.2100503,63.7668342 C45.5366834,64.2753769 47.2613065,65.2040201 49.3396985,66.3869347 C48.9859296,67.0170854 48.7869347,67.7467337 48.7869347,68.520603 L48.7869347,68.8080402 C47.8030151,68.4984925 46.4653266,68.1668342 44.7517588,67.7688442 C47.5929648,69.559799 46.7306533,69.0954774 48.6432161,70.0462312 C46.520603,71.3065327 47.4824121,70.6763819 44.5306533,72.8984925 C46.3326633,72.3015075 47.7477387,71.8150754 48.7869347,71.3949749 C48.7979899,72.2351759 49.0522613,73.0201005 49.4723618,73.6834171 C47.7809045,74.6894472 45.7356784,75.7396985 43.8231156,76.2482412 Z M66.0994975,76.2482412 C64.1979899,75.7396985 62.1417085,74.6894472 60.439196,73.6834171 C60.8371859,73.0532663 61.080402,72.3125628 61.1246231,71.5276382 C62.119598,71.9145729 63.4351759,72.3678392 65.0492462,72.8984925 C62.1859296,70.7537688 62.9929648,71.2623116 61.1356784,70.1678392 L61.1356784,69.9467337 C62.7939698,69.1286432 62.0974874,69.4934673 64.8281407,67.7688442 C63.3025126,68.1226131 62.0753769,68.4321608 61.1356784,68.7085427 L61.1356784,68.520603 C61.1356784,67.7467337 60.9366834,67.0170854 60.5829146,66.3869347 C62.6723618,65.2040201 64.3859296,64.2753769 65.7125628,63.7668342 C71.7266332,61.4562814 70.2341709,77.3537688 66.0994975,76.2482412 Z"/>
  </g>
</svg>
