<svg xmlns="http://www.w3.org/2000/svg" viewBox="0 0 18 25"><defs><style>.cls-1{fill:#d33833;}.cls-2{fill:#ef3d3a;}.cls-3{fill:#231f20;}.cls-4{fill:#f0d6b7;}.cls-5{fill:#335061;}.cls-6{fill:#6d6b6d;}.cls-7{fill:#dcd9d8;}.cls-8{fill:#f7e4cd;}.cls-9{fill:#49728b;}.cls-10{fill:#fff;}.cls-11{fill:#81b0c4;}.cls-12{fill:#1d1919;}</style></defs><title>Asset 29</title><g id="Layer_2" data-name="Layer 2"><g id="Title"><g id="g10"><g id="g3393"><path id="path22" class="cls-1" d="M17.73,12.05A8.86,8.86,0,0,1,9,21a8.86,8.86,0,0,1-8.73-9A8.85,8.85,0,0,1,9,3.08a8.85,8.85,0,0,1,8.73,9"/><path id="path24" class="cls-2" d="M.63,14.27S0,4.92,8.57,4.65L8,3.65,3.32,5.22,2,6.75.83,9,.16,11.6l.2,1.73"/><path id="path26" class="cls-3" d="M3,5.93A8.8,8.8,0,0,0,.54,12.08h0A8.8,8.8,0,0,0,3,18.23H3a8.3,8.3,0,0,0,6,2.55H9a8.3,8.3,0,0,0,6-2.55h0a8.8,8.8,0,0,0,2.48-6.15h0A8.8,8.8,0,0,0,15,5.93h0A8.34,8.34,0,0,0,9,3.38H9A8.34,8.34,0,0,0,3,5.93ZM2.63,18.61A9.36,9.36,0,0,1,0,12.08H0A9.36,9.36,0,0,1,2.63,5.55h0A8.88,8.88,0,0,1,9,2.84H9a8.88,8.88,0,0,1,6.37,2.71h0A9.36,9.36,0,0,1,18,12.08h0a9.36,9.36,0,0,1-2.63,6.53h0A8.88,8.88,0,0,1,9,21.32H9a8.88,8.88,0,0,1-6.37-2.71h0"/><path id="path28" class="cls-4" d="M12.67,12.1l-1.33.2-1.79.2-1.17,0-1.13,0-.86-.27-.77-.83L5,9.69l-.14-.37L4.1,9.06l-.47-.77L3.3,7.19l.36-1,.87-.3.7.33L5.56,7,6,6.92l.13-.17L6,6l0-1,.2-1.34V2.92l.6-1,1.07-.77L9.65.37l2.06.3L13.51,2l.83,1.33.53,1L15,6.69l-.4,2.07-.73,1.83-.7,1"/><path id="path30" class="cls-5" d="M11.54,17.88l-4.75.2v.8l.4,2.8-.2.24L3.66,20.78l-.23-.4L3.1,16.61l-.77-2.28-.16-.53L4.83,12l.83-.33.73.9L7,13.1l.73.23.34.1.39,1.74.3.37.77-.27-.53,1,2.89,1.36-.37.21"/><path id="path32" class="cls-6" d="M3.66,6.22l.87-.3.7.33L5.56,7,6,6.92l.1-.4-.2-.77.2-1.84-.17-1,.6-.7,1.3-1L7.42.67l-1.83.9-.76.61-.44.93L3.73,4l-.2,1.07.13,1.14"/><path id="path34" class="cls-7" d="M5,3.08A3.71,3.71,0,0,1,7.52,1.24c2-.6.1-.43.1-.43l-2.16.83-.83.84-.37.66L5,3.08"/><path id="path36" class="cls-7" d="M4,6A2,2,0,0,1,6,3.31l-.1-.4-1.83.44L3.53,5.08l.13,1.14L4,6"/><path id="path38" class="cls-8" d="M5.09,9.09l.44-.42a.28.28,0,0,1,.23.25A5.13,5.13,0,0,0,7.32,12.4c.13.1-1.06-.17-1.06-.17L5.19,10.56"/><path id="path40" class="cls-8" d="M11.21,8.46s.08-1,.35-.94a.38.38,0,0,1,.27.35s-.66.43-.62.59"/><path id="path42" class="cls-8" d="M14,4.75s-.55.11-.6.6.6.1.7.07"/><path id="path44" class="cls-8" d="M10,4.78s-.73.1-.73.57.83.43,1.06.23"/><path id="path46" class="cls-8" d="M5.43,7s-1.27-.77-1.4,0-.43,1.27.2,2L3.8,8.82l-.4-1-.14-1L4,6l.86.07.5.4,0,.5"/><path id="path48" class="cls-8" d="M6,4.85A4.61,4.61,0,0,1,9.45,1.34C11.8.87,13,1.44,13.51,2c0,0-2.1-2.51-4.09-1.74S6,2.41,6,3.31A11.54,11.54,0,0,1,6,4.85"/><path id="path50" class="cls-8" d="M13.74,2.31s-1,0-1,.83a.64.64,0,0,0,.07.27S13.57,2.54,14,3"/><path id="path52" class="cls-8" d="M9.52,3.5s-.17-1.33-1.3-.56c-.73.51-.67,1.21-.53,1.34s.09.4.19.22.07-.79.44-1,1-.36,1.2,0"/><path id="path54" class="cls-9" d="M6.39,12.53l-3.13,1.4s1.3,5.18.64,6.78l-.47-.16,0-2-.87-3.74-.36-1,3.26-2.2,1,.93"/><path id="path56" class="cls-9" d="M6.71,15.39l.44.55v2H6.62s-.06-1.4-.06-1.57.06-.77.06-.77"/><path id="path58" class="cls-9" d="M6.72,18.24l-1.49.07.43.3,1.06.17"/><path id="path60" class="cls-5" d="M11.84,17.91l1.23,0,.3,3.07-1.26.17-.27-3.21"/><path id="path62" class="cls-5" d="M12.18,17.91l1.86-.1s.76-1.94.76-2,.67-2.8.67-2.8L14,11.4l-.3-.27-.8.8V15l-.69,2.87"/><path id="path64" class="cls-9" d="M13,17.67l-1.17.24.17.93c.43.2,1.16-.33,1.16-.33"/><path id="path66" class="cls-9" d="M13,11.83l2.33,1.74.06-.81-1.76-1.63-.63.7"/><path id="path68" class="cls-10" d="M7.88,24.49l-.69-2.81-.34-2.07-.06-1.53,3.11-.17h1.94l-.17,3.51.3,2.7,0,.5-2.52.2-1.53-.33"/><path id="path70" class="cls-7" d="M11.41,17.88a29.43,29.43,0,0,0,.33,5.94,6.16,6.16,0,0,1-2.46.8l2.8-.1.33-.2L12,18.84l-.1-1.17"/><path id="path72" class="cls-10" d="M13.43,20.68l1.3-.37,2.46-.13L17.55,19l-.66-2-.77-.1-1.06.34-1,.5-.54-.1-.43.17"/><path id="path74" class="cls-7" d="M13.41,20a4.5,4.5,0,0,1,1-.36L14,17.81l.43-.17s.3,1.74.3,1.94l2,.1a3,3,0,0,0,.3-1.57l.36,1.07,0,.6-.54.8-.59.13-1,0L15,20.25l-1.17.16-.36.14"/><path id="path76" class="cls-10" d="M12.1,17.64l-.73-1.87-.77-1.1s.17-.47.4-.47h.77l.73.27-.07,1.23-.33,1.94"/><path id="path78" class="cls-7" d="M12.24,17a16,16,0,0,1-.93-2.07s.17-.41.4-.3.73.36.73.36v-.63l-1.13-.24-.76.1,1.29,3.08.27,0"/><path id="path80" class="cls-10" d="M8.18,12.6l-.93-.1-.86-.27v.3l.42.47,1.33.6"/><path id="path82" class="cls-7" d="M6.69,12.7A3.67,3.67,0,0,0,8.05,13l0,.4-.94-.2-.56-.4.1-.13"/><path id="path84" class="cls-1" d="M13.43,14.31a5.75,5.75,0,0,1-1.52-.21c0-.18,0-.36,0-.49a1.22,1.22,0,0,1,.53-.11,1,1,0,0,0-.58-.07,1,1,0,0,0-.1-.3c.32-.12,1.07-.86,1.49-.62.2.12.28.79.3,1.12a1.14,1.14,0,0,1-.13.68"/><path class="cls-1" d="M13.46,14.4h0a6.27,6.27,0,0,1-1.54-.22l-.06,0v-.07a1.77,1.77,0,0,0,0-.23.86.86,0,0,1,0-.28v0l0,0,.08,0h-.07l-.1,0v-.09a.66.66,0,0,0-.06-.2l0-.09,0-.07.07,0a2.07,2.07,0,0,0,.38-.22c.37-.26.84-.58,1.18-.39s.33,1.08.34,1.18a1.22,1.22,0,0,1-.15.74ZM12,14.05a6.26,6.26,0,0,0,1.39.18,1.1,1.1,0,0,0,.1-.6,2,2,0,0,0-.26-1.05c-.25-.14-.69.16-1,.38a3.49,3.49,0,0,1-.33.21h0l.06.16a1,1,0,0,1,.54.09l.25.12-.28,0h-.11a.91.91,0,0,0-.35.07,1.2,1.2,0,0,0,0,.19A1.33,1.33,0,0,1,12,14.05Z"/><path id="path88" class="cls-1" d="M10.73,13.39s0,.08,0,.13c-.17.11-.46.11-.65.21a1.6,1.6,0,0,1,.7.18c0,.11,0,.21,0,.32a8.75,8.75,0,0,1-1,.76,2.52,2.52,0,0,1-1,.31c-.11,0-.12-.16-.16-.29a3.85,3.85,0,0,1-.32-1.11c0-.52-.08-1.39.48-1.28a5.22,5.22,0,0,1,1.31.48,1.39,1.39,0,0,0,.66.29"/><path class="cls-1" d="M8.81,15.39H8.74c-.13,0-.16-.15-.19-.26l0-.08-.08-.22a2.89,2.89,0,0,1-.24-.92v0c0-.43,0-1,.22-1.25a.4.4,0,0,1,.36-.08,5.41,5.41,0,0,1,1.34.49l.16.1a.84.84,0,0,0,.46.18h.08v.25l0,0a.78.78,0,0,1-.32.12,1.78,1.78,0,0,1,.36.14l0,0v.42l0,0-.37.3a3.5,3.5,0,0,1-.63.46A3,3,0,0,1,8.81,15.39Zm-.14-2.7a.3.3,0,0,0-.16.05c-.2.18-.17.75-.16,1.12v0a2.86,2.86,0,0,0,.23.88c0,.08.06.15.08.22l0,.08c0,.1,0,.14.08.15a2.48,2.48,0,0,0,.94-.3,3.31,3.31,0,0,0,.6-.44l.36-.29V14a1.66,1.66,0,0,0-.62-.15H9.76l.27-.14a1.19,1.19,0,0,1,.32-.1,1.1,1.1,0,0,0,.29-.09h0a1,1,0,0,1-.47-.2L10,13.17a4.79,4.79,0,0,0-1.29-.47Z"/><path id="path92" class="cls-1" d="M11.05,14A2,2,0,0,1,11,13.4c.75-.5.89.86.09.61"/><path class="cls-1" d="M11.24,14.12a.69.69,0,0,1-.22,0h0V14c0-.09,0-.16-.05-.22a1.27,1.27,0,0,1,0-.41v0l0,0c.34-.22.54-.09.61,0a.51.51,0,0,1,.08.6A.41.41,0,0,1,11.24,14.12Zm-.12-.18a.29.29,0,0,0,.35-.11.36.36,0,0,0-.05-.41c-.09-.08-.22-.07-.38,0a.91.91,0,0,0,0,.33C11.09,13.82,11.1,13.87,11.12,13.94Z"/><path id="path96" class="cls-2" d="M12.13,14.23s-.23-.33-.06-.43.33,0,.43-.17,0-.26,0-.46.2-.24.37-.27.63-.1.7.07l-.2-.61-.4-.13L11.73,13l-.06.36v.74"/><path id="path98" class="cls-2" d="M8.64,15.34c0-.52-.08-1-.13-1.57-.07-.77.19-.64.86-.64a2,2,0,0,1,.67.2c.18.37-.31.29.21.57s1.19-.14,1-.67c-.1-.11-.51,0-.66-.11l-.78-.41c-.33-.17-1.09-.42-1.45-.18-.89.61.06,2.13.38,2.77"/><path id="path100" class="cls-3" d="M9.52,3.5c-.91-.21-1.36.38-1.64,1-.24-.06-.14-.4-.08-.57A1.52,1.52,0,0,1,9.15,3c.23,0,.54.25.37.53"/><path id="path102" class="cls-3" d="M13.93,4.54h0a10,10,0,0,0,.65,1.26c-.18.4-1.32.76-1.3,0,.25-.1.67,0,.89-.16a2.39,2.39,0,0,1-.28-1.13"/><path id="path104" class="cls-3" d="M10,4.55a3.8,3.8,0,0,0,.53,1c.13.13.37.27.25.61a.81.81,0,0,1-.35.3c-.43.12-1.44,0-1.1-.52.36,0,.84.23,1.11,0-.21-.32-.57-1-.44-1.36"/><path id="path106" class="cls-3" d="M13.77,8.19A3.62,3.62,0,0,1,11.33,9,.72.72,0,0,1,11.24,8c.11.2,0,.57.36.62.6.11,1.31-.37,1.74-.53.27-.46,0-.63-.26-.92a3.63,3.63,0,0,1-1.14-2.25c.2-.15.21.22.24.29a8.39,8.39,0,0,0,1.39,1.91c.12.13.31.25.33.34.07.25-.16.54-.13.71"/><path id="path108" class="cls-3" d="M5.2,7.75C5,7.63,5,7.11,4.71,7.1s-.28.67-.28,1.07A1.27,1.27,0,0,1,4.32,7c-.19-.09-.28.11-.39.18.14-1,1.49-.47,1.27.62"/><path id="path110" class="cls-3" d="M14.18,8.61a1.87,1.87,0,0,1-1.62,1.24,2.26,2.26,0,0,1,0-.59,4.54,4.54,0,0,0,1.61-.65"/><path id="path112" class="cls-3" d="M9.93,9a5.65,5.65,0,0,0,2.38.31,2.69,2.69,0,0,1,0,.58c-1,0-2.16-.19-2.42-.89"/><path id="path114" class="cls-3" d="M9.82,9.55c.39,1,1.74.87,2.87.84a.61.61,0,0,1-.29.34,2.85,2.85,0,0,1-1.87,0,2.55,2.55,0,0,1-.7-.78c-.09-.11-.51-.39,0-.39"/><path id="path116" class="cls-11" d="M13.72,15a21.26,21.26,0,0,1-1.44,2.3,11.41,11.41,0,0,0,.36-2.67.83.83,0,0,1,1.08.37"/><path id="path118" class="cls-3" d="M16.2,17.84c-.52.1-.88.61-1.38.57a1.64,1.64,0,0,1,1.38-.57"/><path id="path120" class="cls-3" d="M16.42,18.65a8.48,8.48,0,0,1-1.33.08c.2-.31,1-.21,1.33-.08"/><path id="path122" class="cls-3" d="M16.57,19.35a15.07,15.07,0,0,1-1.51,0c.27-.29,1.2-.11,1.51,0"/><path id="path124" class="cls-7" d="M12.84,21.25a12.12,12.12,0,0,1,.27,1.85,1.89,1.89,0,0,1-.76.17c0-.56-.1-1.4-.08-1.93.17,0,.43-.12.57-.09"/><path id="path126" class="cls-4" d="M12.08,12.49c-.24.15-.44.35-.67.51a1.45,1.45,0,0,1-1.15-.32s0,0,0,0c.54.24,1.23-.1,1.78-.15"/><path id="path128" class="cls-11" d="M9.24,16.18c.15-.64.73-1,1.26-1.33a11,11,0,0,1,1.24,2.45,12.8,12.8,0,0,1-2.5-1.12"/><path id="path130" class="cls-3" d="M12.27,21.34c0,.53.05,1.37.08,1.93a1.89,1.89,0,0,0,.76-.17,12.12,12.12,0,0,0-.27-1.85C12.7,21.22,12.44,21.35,12.27,21.34Zm-5.44-3A27.86,27.86,0,0,0,8,24.14a7.58,7.58,0,0,0,4.19.07c-.22-1.06-.12-2.35-.25-3.49-.1-.85,0-1.71-.18-2.58A14.39,14.39,0,0,0,6.83,18.34Zm5.29-.18c0,.91,0,1.81.11,2.72.34-.05.58-.08.91-.15a21.17,21.17,0,0,0-.31-2.65A1.9,1.9,0,0,0,12.12,18.16ZM13.89,18a2.26,2.26,0,0,0-.52,0c.07.74.25,1.57.32,2.35.25,0,.38-.11.58-.15a4.61,4.61,0,0,0-.38-2.2Zm2.68,2.46a1.17,1.17,0,0,0,.7-1.42,6.61,6.61,0,0,0-.46-1.55c-.14-.21-.51-.49-.8-.3-.49.32-1.34.41-1.69.78a13.11,13.11,0,0,1,.3,2.15,6.25,6.25,0,0,1,1.85.06,6.44,6.44,0,0,0-1.11.28,2.35,2.35,0,0,0,1.21,0ZM11.74,17.3a11,11,0,0,0-1.24-2.45c-.53.35-1.11.69-1.26,1.33A12.8,12.8,0,0,0,11.74,17.3Zm.9-2.67a11.41,11.41,0,0,1-.36,2.67A21.26,21.26,0,0,0,13.72,15,.83.83,0,0,0,12.64,14.63Zm-1-.36c-.21,0-.38.24-.65.12l-.18.21a16.46,16.46,0,0,1,1.32,2.58,10.91,10.91,0,0,0,.27-2.58C12,14.62,11.86,14.29,11.62,14.27ZM11,13.4a2,2,0,0,0,.09.61C11.85,14.26,11.71,12.9,11,13.4Zm-.89-.3a5.22,5.22,0,0,0-1.31-.48c-.56-.11-.51.76-.48,1.28A3.85,3.85,0,0,0,8.6,15c0,.13.05.27.16.29a2.52,2.52,0,0,0,1-.31,8.75,8.75,0,0,0,1-.76c0-.11,0-.21,0-.32a1.6,1.6,0,0,0-.7-.18c.19-.1.48-.1.65-.21,0,0,0-.09,0-.13A1.39,1.39,0,0,1,10.07,13.1Zm-3.31-.6c-.29.29.81.69,1.15.71,0-.18.11-.36.09-.49C7.58,12.65,7,12.7,6.76,12.5Zm3.54.14s0,0,0,0a1.45,1.45,0,0,0,1.15.32c.23-.16.43-.36.67-.51C11.53,12.54,10.84,12.88,10.3,12.64Zm3.26,1c0-.33-.1-1-.3-1.12-.42-.24-1.17.5-1.49.62a1,1,0,0,1,.1.3,1,1,0,0,1,.58.07,1.22,1.22,0,0,0-.53.11c0,.13,0,.31,0,.49a5.75,5.75,0,0,0,1.52.21A1.14,1.14,0,0,0,13.56,13.63Zm-7.29-.85c-.09-.06-.7-.86-.78-.83a13.19,13.19,0,0,0-3.07,1.92,16.79,16.79,0,0,1,1.3,6.47A8.2,8.2,0,0,0,7,21.57c-.16-1.13-.3-2.14-.39-3.2-.35-.14-.84,0-1.16,0,0-.39.49-.17.53-.43s-.27-.22-.17-.53c.25.09.38.29.65.37.24-.54,0-1.49,0-1.94,0-.09,0-.47.23-.41s0,1,0,1.45,0,.78.11,1a38.23,38.23,0,0,1,4.1-.33,11.93,11.93,0,0,1-1.1-.5c-.22-.13-.92-.39-1-.6s.26-.52.33-.81c-.67.37-.8-.35-1-.86A7.58,7.58,0,0,1,8,13.69a10.5,10.5,0,0,1-1.69-.91ZM13,12.05c.92-.45,1.08,1.68.72,2.36.06.21.25.29.33.47-.52.92-1.09,1.79-1.61,2.7.39-.24.95,0,1.41-.22.16-.07.28-.46.41-.76a16.39,16.39,0,0,0,.88-2.74,3.44,3.44,0,0,0,.12-.75c0-.29-.44-.51-.64-.7-.38-.33-.61-.63-1-.94-.16.23-.5.39-.62.58ZM4.16,3.83a3,3,0,0,0-.29,2.05,1.18,1.18,0,0,1,1.84.89c.38,0,.14-.47.07-.77-.22-1,.38-2,0-2.94a2.45,2.45,0,0,0-1.65.77ZM7.31,1a4.44,4.44,0,0,0-2.68,1.9c.32,0,.54-.2.85-.22a1.84,1.84,0,0,0,.41,0c.27-.06.5-.67.7-.9s.44-.32.6-.52.26,0,.27-.2S7.36,1,7.31,1Zm5.18.26A4.72,4.72,0,0,0,8.61.81,5.27,5.27,0,0,0,6.12,2.92C6.5,3.81,6,4.64,6,5.55,6,6,6.2,6.46,6.22,7c-.13.21-.53.24-.81.22-.09-.46-.25-1-.73-1A1.11,1.11,0,0,0,3.47,7.25C3.44,7.94,4,9.09,4.8,9c.31,0,.39-.35.73-.34.18.36-.28.48-.33.74a2.34,2.34,0,0,0,.07.46,6.1,6.1,0,0,0,.79,1.84c.4.59,1.2.68,2.06.73.15-.33.71-.3,1.08-.21a3.67,3.67,0,0,1-1.19-1,2.43,2.43,0,0,1-.8-1.46,5.31,5.31,0,0,0,2.68,2.38,3.57,3.57,0,0,0,3-.71,3.52,3.52,0,0,0,.74-.92A7.85,7.85,0,0,0,14.79,5.8a5.55,5.55,0,0,0-.27-1.89c-.25-.5-1.09-.94-1.58-.49-.09-.49.41-.79,1-.61a5.54,5.54,0,0,0-1.44-1.53Zm1.92,16c.81-.4,2.31-1.08,2.82,0a8.42,8.42,0,0,1,.5,1.49c.14.59-.15,1.81-.74,2a3.55,3.55,0,0,1-1.78,0,.89.89,0,0,1-.21-.28,2.4,2.4,0,0,0-1.24.21c0,.34-.19.39-.41.46-.15.63.32,1.45.21,2-.08.4-.58.47-1,.54a3.82,3.82,0,0,0,0,.61.91.91,0,0,1-.82.53,10.19,10.19,0,0,1-4.08-.2c-.31-.78-.56-1.72-.82-2.61a5.28,5.28,0,0,1-2.83-.86c-.29-.14-.7-.21-.8-.44a3.64,3.64,0,0,1-.09-1.07,16.88,16.88,0,0,0-.4-3.11c-.12-.47-.34-.89-.48-1.35a11.08,11.08,0,0,1-.45-1.38c-.09-.63.5-.67.88-.94a17.58,17.58,0,0,1,1.68-1,3.79,3.79,0,0,0,.81-.53c.13-.26-.22-.63-.31-.83a2.46,2.46,0,0,1-.24-.92,1.75,1.75,0,0,1-1.18-.76,2.92,2.92,0,0,1-.33-2.52c0-.07.16-.2.18-.3a3.94,3.94,0,0,0-.08-.67c0-1.09.18-2,.91-2.35C4.49,1.83,5.55,1.44,6.54.86A7.62,7.62,0,0,1,7.74.34a6,6,0,0,1,5.11.5,7.06,7.06,0,0,1,1.69,1.88,10.06,10.06,0,0,1,.19,6.37,7.2,7.2,0,0,1-.34,1c-.11.23-.44.67-.4.87s.76.75.91.9.8.63.84,1a3.2,3.2,0,0,1-.26,1.2c-.34,1.16-.68,2.23-1.07,3.26"/><path id="path132" class="cls-8" d="M9,9.24c0-.06.28-.15.62,0,0,0-.4.06-.37.73l-.16,0S8.94,9.35,9,9.24"/><path id="path134" class="cls-12" d="M11.94,15a.18.18,0,0,1-.36,0,.18.18,0,1,1,.36,0"/><path id="path136" class="cls-12" d="M12.13,15.84a.19.19,0,0,1-.19.18.18.18,0,0,1-.18-.18.19.19,0,0,1,.18-.19.2.2,0,0,1,.19.19"/></g></g></g></g></svg>