<?xml version="1.0" encoding="utf-8"?>
<!-- Generator: Adobe Illustrator 19.1.0, SVG Export Plug-In . SVG Version: 6.00 Build 0)  -->
<svg version="1.0" id="Layer_1" xmlns="http://www.w3.org/2000/svg" xmlns:xlink="http://www.w3.org/1999/xlink" x="0px" y="0px"
	 viewBox="0 0 360 360" style="enable-background:new 0 0 360 360;" xml:space="preserve">
<style type="text/css">
	.st0{fill:#365362;}
	.st1{fill:#0097B5;}
</style>
<g>
	<g>
		<g>
			<path class="st0" d="M190.7,136.2h-9.8v19.2c-2.7-1.5-5.9-2.4-9.2-2.4c-10.5,0-19,8.5-19,19s8.5,19,19,19h7.1v-9.8h-7.1
				c-5.1,0-9.2-4.1-9.2-9.2c0-5.1,4.1-9.2,9.2-9.2s9.2,4.1,9.2,9.2h9.8c0,0,0-0.1,0-0.1l0,0V136.2z"/>
			<path class="st0" d="M25.3,159c-3.3,3.2-5.9,7.9-5.9,13.9c0,6.4,2.9,10.9,5.5,13.5c3.2,3.2,7.8,5.3,13.7,5.3c3.2,0,6-0.5,9-2.1
				v-10.3c-2.6,2.2-5.3,2.8-7.3,2.8c-2.5,0-5.2-1-6.9-2.9c-1.4-1.5-2.4-3.7-2.4-6.3c0-2.9,1.1-5.2,2.6-6.7c0.8-0.8,2.9-2.5,6.5-2.5
				c1.8,0,4.7,0.4,7.4,2.7V156c-3-1.4-5.9-2-9-2C33.9,154,29.2,155.3,25.3,159z"/>
			<rect x="53.6" y="136.2" class="st0" width="10.8" height="54.9"/>
			<path class="st0" d="M88.3,154c-6.3,0-11.3,2.5-14.2,5.7c-3.3,3.6-4.9,8.6-4.9,13.2c0,4.5,1.6,9.6,4.9,13.2
				c2.9,3.2,7.9,5.7,14.2,5.7c6.3,0,11.3-2.5,14.2-5.7c3.3-3.6,4.9-8.6,4.9-13.2c0-4.5-1.6-9.6-4.9-13.2
				C99.6,156.6,94.7,154,88.3,154z M94.2,179.5c-1.5,1.7-3.5,2.5-5.8,2.5c-2.8,0-4.7-1.1-6-2.5c-1.2-1.3-2.4-3.4-2.4-6.7
				c0-2.9,0.9-5,2.4-6.7c1.5-1.7,3.5-2.5,5.9-2.5c2.4,0,4.4,0.9,5.9,2.5c1.5,1.7,2.4,3.8,2.4,6.7C96.6,175.7,95.8,177.9,94.2,179.5z
				"/>
			<path class="st0" d="M136.8,174.2c0,1.7-0.2,4.1-1.9,5.7c-1,1-2.7,1.7-4.8,1.7c-2.5,0-4-1-4.8-1.7c-1.8-1.7-2-4.1-2-5.7v-19.5
				h-11.4V176c0,3.9,0.6,7.4,3.9,10.6c4,4,9.9,5.1,14.3,5.1c4.2,0,10.1-1.1,14.2-5.1c3.6-3.5,4-7.3,4-11.3v-20.6h-11.4V174.2z"/>
		</g>
		<g>
			<path class="st1" d="M199.9,224.1c-10.5,0-19-8.5-19-19v-31h9.8v31c0,5.1,4.1,9.2,9.2,9.2c5.1,0,9.2-4.1,9.2-9.2
				c0-5.1-4.1-9.2-9.2-9.2h-7.1v-9.8h7.1c10.5,0,19,8.5,19,19S210.4,224.1,199.9,224.1z"/>
			<path class="st1" d="M260.4,206.8h-26.3c0,1.9,0.7,4.4,2.1,6c1.7,1.9,4.1,2.2,5.9,2.2c1.7,0,3.4-0.3,4.6-1
				c0.2-0.1,1.5-0.9,2.5-2.9l10.8,1.1c-1.6,5-4.7,7.6-6.8,8.9c-3.4,2.1-7.2,3.1-11.1,3.1c-5.3,0-10-1.5-14.1-5.6
				c-3.1-3.1-5.3-7.7-5.3-13.6c0-5.1,1.8-10.3,5.4-13.9c4.3-4.3,9.6-5.1,13.5-5.1c4,0,9.6,0.7,14,5.3c4.2,4.4,5,10,5,14.3V206.8z
				 M249.9,200c-0.1-0.3-0.6-2.5-2.3-4.1c-1.3-1.2-3.1-2-5.4-2c-2.9,0-4.7,1.2-5.8,2.3c-0.9,0.9-1.7,2.2-2,3.8H249.9z"/>
			<path class="st1" d="M301.9,206.8h-26.3c0,1.9,0.7,4.4,2.1,6c1.7,1.9,4.1,2.2,5.9,2.2c1.7,0,3.4-0.3,4.6-1
				c0.2-0.1,1.5-0.9,2.5-2.9l10.8,1.1c-1.6,5-4.7,8.1-6.8,9.4c-3.4,2.1-7.2,2.6-11.1,2.6c-5.3,0-10-1.5-14.1-5.6
				c-3.1-3.1-5.3-7.7-5.3-13.6c0-5.1,1.8-10.3,5.4-13.9c4.3-4.3,9.6-5.1,13.5-5.1c4,0,9.6,0.7,14,5.3c4.2,4.4,5,10,5,14.3V206.8z
				 M291.4,200c-0.1-0.3-0.6-2.5-2.3-4.1c-1.3-1.2-3.1-2-5.4-2c-2.9,0-4.7,1.2-5.8,2.3c-0.9,0.9-1.7,2.2-2,3.8H291.4z"/>
			<path class="st1" d="M327,196.7c-1.7-1-4-2-6.2-2c-1.2,0-2.5,0.3-3.2,1c-0.4,0.4-0.7,1-0.7,1.6c0,0.8,0.6,1.3,1.1,1.6
				c0.8,0.5,2,0.7,3.4,1.2l3,0.9c2,0.6,4,1.4,5.9,3.1c2.1,1.9,2.8,4,2.8,6.7c0,4.7-2.1,7.7-3.6,9.3c-3.5,3.5-7.7,4-11.5,4
				c-4.7,0-9.9-1-14.5-5.1l4.8-7.7c1.1,0.9,2.7,2.1,3.9,2.6c1.6,0.8,3.2,1.1,4.7,1.1c0.7,0,2.5,0,3.6-0.8c0.7-0.6,1.2-1.4,1.2-2.3
				c0-0.6-0.2-1.4-1.3-2.1c-0.8-0.5-1.8-0.8-3.5-1.3l-2.8-0.9c-2.1-0.6-4.2-1.7-5.7-3.2c-1.7-1.7-2.5-3.7-2.5-6.4
				c0-3.4,1.3-6.2,3.4-8.1c3.2-2.9,7.4-3.6,10.7-3.6c5.2,0,8.9,1.3,11.7,3L327,196.7z"/>
		</g>
	</g>
	<g>
		<path class="st1" d="M333.4,220.9c0-0.3,0-0.6,0.1-0.8c0.1-0.3,0.2-0.5,0.3-0.7c0.1-0.2,0.3-0.4,0.5-0.6c0.2-0.2,0.4-0.3,0.6-0.5
			c0.2-0.1,0.5-0.2,0.7-0.3s0.5-0.1,0.8-0.1s0.6,0,0.8,0.1c0.3,0.1,0.5,0.2,0.7,0.3c0.2,0.1,0.4,0.3,0.6,0.5
			c0.2,0.2,0.3,0.4,0.5,0.6c0.1,0.2,0.2,0.5,0.3,0.7c0.1,0.3,0.1,0.5,0.1,0.8c0,0.3,0,0.6-0.1,0.8c-0.1,0.3-0.2,0.5-0.3,0.7
			c-0.1,0.2-0.3,0.4-0.5,0.6c-0.2,0.2-0.4,0.3-0.6,0.5c-0.2,0.1-0.5,0.2-0.7,0.3c-0.3,0.1-0.5,0.1-0.8,0.1s-0.6,0-0.8-0.1
			s-0.5-0.2-0.7-0.3c-0.2-0.1-0.4-0.3-0.6-0.5c-0.2-0.2-0.3-0.4-0.5-0.6c-0.1-0.2-0.2-0.5-0.3-0.7
			C333.4,221.4,333.4,221.1,333.4,220.9z M333.9,220.9c0,0.4,0.1,0.7,0.2,1c0.1,0.3,0.3,0.6,0.6,0.8c0.2,0.2,0.5,0.4,0.8,0.6
			c0.3,0.1,0.7,0.2,1,0.2c0.4,0,0.7-0.1,1-0.2c0.3-0.1,0.6-0.3,0.8-0.6c0.2-0.2,0.4-0.5,0.6-0.8c0.1-0.3,0.2-0.7,0.2-1
			c0-0.4-0.1-0.7-0.2-1c-0.1-0.3-0.3-0.6-0.6-0.9c-0.2-0.2-0.5-0.4-0.8-0.6c-0.3-0.1-0.7-0.2-1-0.2c-0.4,0-0.7,0.1-1,0.2
			c-0.3,0.1-0.6,0.3-0.8,0.6c-0.2,0.2-0.4,0.5-0.6,0.9C333.9,220.1,333.9,220.5,333.9,220.9z M335.9,221.3v1.5h-0.7V219h1.2
			c0.5,0,0.9,0.1,1.1,0.3c0.2,0.2,0.4,0.4,0.4,0.8c0,0.3-0.1,0.5-0.2,0.7c-0.1,0.2-0.4,0.3-0.7,0.4c0,0,0.1,0.1,0.1,0.1
			c0,0,0.1,0.1,0.1,0.2l0.9,1.4h-0.7c-0.1,0-0.2,0-0.2-0.1l-0.8-1.2c0,0-0.1-0.1-0.1-0.1s-0.1,0-0.2,0H335.9z M335.9,220.7h0.5
			c0.2,0,0.3,0,0.4,0c0.1,0,0.2-0.1,0.3-0.1c0.1-0.1,0.1-0.1,0.1-0.2c0-0.1,0-0.2,0-0.3c0-0.1,0-0.2,0-0.3c0-0.1-0.1-0.1-0.1-0.2
			c-0.1-0.1-0.1-0.1-0.2-0.1s-0.2,0-0.4,0h-0.5V220.7z"/>
	</g>
</g>
<g>
</g>
<g>
</g>
<g>
</g>
<g>
</g>
<g>
</g>
<g>
</g>
</svg>
