<svg xmlns="http://www.w3.org/2000/svg" width="131" height="23" viewBox="0 0 131 23">
  <defs>
    <linearGradient id="cloubbees-logotype-white-a" x1="0%" x2="100%" y1="50%" y2="50%">
      <stop offset="0%" stop-color="#006AB0" stop-opacity=".5"/>
      <stop offset="100%" stop-color="#006AB0" stop-opacity="0"/>
    </linearGradient>
  </defs>
  <g fill="none" fill-rule="evenodd">
    <path fill="#FFF" d="M13.1410045,9.49114413 L13.1410045,12.8210733 L16.3313325,12.8210733 C18.09085,12.8210733 19.5170008,14.2155169 19.5170008,15.9370239 C19.5170008,17.6584238 18.0870698,19.0536301 16.3275523,19.0536301 C14.5680348,19.0536301 13.1402393,17.6437063 13.1402393,15.9223063 L13.1410045,6.39505813 C13.1410045,4.96796554 12.6503121,3.52809157 11.7685475,2.42375985 C11.4349324,2.03706055 11.5456278,2.04541746 11.1489471,2.37219122 C11.1393565,2.38009162 11.1301163,2.38838941 11.1212519,2.39706184 L9.28489225,4.19363903 C8.97650746,4.49534308 9.00766921,4.38696703 9.2227632,4.72443158 C9.5610479,5.25517211 9.73019026,5.81204763 9.73019026,6.39505813 L9.73019026,15.9370239 C9.73019026,19.4985337 12.6871788,22.3811924 16.3275523,22.3811924 C19.9679259,22.3811924 22.9223564,19.4985337 22.9223564,15.9370239 C22.9223564,12.375514 19.9679259,9.49114413 16.3275523,9.49114413 C13.9006366,9.49114413 12.838454,9.49114413 13.1410045,9.49114413 Z"/>
    <path fill="#FFF" d="M6.56011163,3.33914716 C7.26231098,3.33914716 7.876275,3.51944534 8.40200371,3.8800417 L10.8001095,1.51882612 C9.6069915,0.506275372 8.19365886,1.42108547e-14 6.56011163,1.42108547e-14 C2.94284468,1.42108547e-14 -1.40687462e-12,2.89942804 -1.40687462e-12,6.46319687 C-1.40687462e-12,10.0268587 2.94284468,12.9261797 6.56011163,12.9261797 L8.88038657,12.9261797 L8.88038657,9.58703256 L6.56011163,9.58703256 C4.81165369,9.58703256 3.38916472,8.1855817 3.38916472,6.46319687 C3.38916472,4.74049101 4.81165369,3.33914716 6.56011163,3.33914716 Z"/>
    <polygon fill="url(#cloubbees-logotype-white-a)" points="13.135 9.515 16.492 9.515 16.492 10.29 16.492 12.847 13.135 12.847" opacity=".5"/>
    <path fill="#FFF" fill-rule="nonzero" d="M128.550462,14.6590909 C129.393692,14.6590909 130.074923,15.3381818 130.074923,16.1686364 C130.074923,16.9990909 129.393692,17.6822727 128.550462,17.6822727 C127.711385,17.6822727 127.038462,16.9990909 127.038462,16.1686364 C127.038462,15.3381818 127.711385,14.6590909 128.550462,14.6590909 Z M128.550462,14.9577273 C127.885846,14.9577273 127.362462,15.4813636 127.362462,16.1686364 C127.362462,16.8559091 127.885846,17.3836364 128.550462,17.3836364 C129.215077,17.3836364 129.738462,16.8559091 129.738462,16.1686364 C129.738462,15.4813636 129.215077,14.9577273 128.550462,14.9577273 Z M128.621077,15.3340909 C128.945077,15.3340909 129.186,15.5590909 129.186,15.8495455 C129.186,16.0786364 129.036462,16.2668182 128.820462,16.3363636 L129.194308,16.9786364 L128.832923,16.9786364 L128.484,16.365 L128.359385,16.365 L128.359385,16.9786364 L128.043692,16.9786364 L128.043692,15.3340909 L128.621077,15.3340909 Z M128.575385,15.6040909 L128.359385,15.6040909 L128.359385,16.095 L128.575385,16.095 C128.762308,16.095 128.866154,16.005 128.866154,15.8536364 C128.866154,15.6940909 128.762308,15.6040909 128.575385,15.6040909 Z M111.906477,7.81334232 C115.223449,7.81334232 116.742956,10.3678633 116.742956,13.1612963 C116.742956,13.2873158 116.736906,13.4253372 116.728262,13.5685022 L116.721346,13.6767333 L116.705895,13.8964102 L109.793991,13.8964102 C110.07195,15.1644817 110.961417,15.8260843 112.221496,15.8260843 C113.140304,15.8260843 113.813896,15.5481477 114.565821,14.8740549 L114.630471,14.8153026 L116.242631,16.230397 C115.316102,17.3698236 113.981901,18.0681818 112.184435,18.0681818 C109.230847,18.0681818 107.040055,16.0328112 106.996535,13.0676545 L106.995875,12.9775178 L106.996479,12.8565584 C107.036358,10.0828706 109.044615,7.81334232 111.906477,7.81334232 Z M100.753387,7.81334232 C104.07036,7.81334232 105.589867,10.3678633 105.589867,13.1612963 C105.589867,13.2873158 105.583816,13.4253372 105.575172,13.5685022 L105.568257,13.6767333 L105.552806,13.8964102 L98.640902,13.8964102 C98.9188606,15.1644817 99.8083282,15.8260843 101.068407,15.8260843 C101.987215,15.8260843 102.660807,15.5481477 103.412732,14.8740549 L103.477382,14.8153026 L105.089542,16.230397 C104.163013,17.3698236 102.828812,18.0681818 101.031346,18.0681818 C98.0777579,18.0681818 95.8869659,16.0328112 95.8434455,13.0676545 L95.8427853,12.9775178 L95.8433901,12.8565584 C95.8832691,10.0828706 97.8915256,7.81334232 100.753387,7.81334232 Z M53.4891148,7.81334232 C56.5344293,7.81334232 58.7987858,10.0288342 58.8437684,12.8192733 L58.8444507,12.9040064 L58.8437628,13.0255061 C58.7984152,15.8166656 56.5157134,18.0681818 53.4520537,18.0681818 C50.4067391,18.0681818 48.1423827,15.8526899 48.0974001,13.0622508 L48.0967178,12.9775178 L48.0974056,12.8560181 C48.1427533,10.0648585 50.425455,7.81334232 53.4891148,7.81334232 Z M37.5713518,4.76261946 C39.9791682,4.76261946 41.4353158,5.54617267 42.6291371,6.69256444 L42.6857902,6.7474271 L40.869794,8.82412399 C39.869143,7.92360941 38.8499614,7.37227395 37.5528212,7.37227395 C35.3883004,7.37227395 33.8229973,9.13710244 33.7915958,11.3119416 L33.7911147,11.3786449 L33.7915753,11.4814492 C33.821944,13.6573144 35.351389,15.4585273 37.5528212,15.4585273 C38.9426143,15.4585273 39.8275216,14.9416503 40.7724858,14.1198967 L40.8355786,14.0646638 L40.9624468,13.9515437 L42.7784431,15.7709507 C41.4442417,17.1860451 39.9617958,18.0681818 37.4601683,18.0681818 C33.6810431,18.0681818 30.8644941,15.2042532 30.808541,11.562741 L30.8076923,11.4521563 L30.8085246,11.3058857 C30.8634045,7.69859654 33.6271191,4.76261946 37.5713518,4.76261946 Z M121.725364,7.85009802 C122.985444,7.85009802 124.356706,8.27278853 125.431479,8.98952463 L124.356706,10.9191987 C123.374586,10.3494854 122.392465,10.0003063 121.669773,10.0003063 C120.984142,10.0003063 120.632061,10.2943519 120.632061,10.6802867 L120.632061,10.7170424 C120.632061,11.2683778 121.57712,11.5256677 122.651893,11.8932247 L122.813136,11.9471882 L122.97793,12.0040397 C124.263355,12.4555274 125.615208,13.1343101 125.653034,14.7456713 L125.653846,14.8520583 C125.653846,17.0390223 124.004625,18.0314261 121.855078,18.0314261 C120.465285,18.0314261 118.908717,17.5719799 117.593046,16.5428204 L118.797534,14.7050355 C119.872307,15.4769052 121.002672,15.8812178 121.929201,15.8812178 C122.744546,15.8812178 123.115158,15.5871723 123.115158,15.1461039 L123.115158,15.1093482 C123.115158,14.5141101 122.186926,14.3083488 121.118864,13.9881705 L120.851225,13.9081516 L120.742801,13.8743666 C119.458186,13.4673673 118.129335,12.7970523 118.094089,11.0812988 L118.093372,10.9743323 C118.093372,8.97114678 119.724062,7.85009802 121.725364,7.85009802 Z M81.1274658,4.43181818 L81.1274658,17.8476476 L78.3108186,17.8476476 L78.3108186,16.4325533 C77.6251873,17.3514457 76.6801281,18.0314261 75.2162127,18.0314261 C72.9230542,18.0314261 70.7388666,16.2662374 70.6954121,13.0390042 L70.6947527,12.9407621 L70.6954011,12.8057642 C70.7381328,9.578531 72.8863637,7.81334232 75.2162127,7.81334232 C76.6305944,7.81334232 77.5348988,8.41712669 78.1927079,9.14800704 L78.2326762,9.19290957 L78.3108186,9.2835702 L78.3108186,4.43181818 L81.1274658,4.43181818 Z M63.0068808,7.9971208 L63.0068808,13.4920975 C63.0068808,14.8153026 63.6369204,15.495283 64.7116936,15.495283 C65.768554,15.495283 66.4491357,14.8377798 66.4715282,13.5577216 L66.4720982,13.4920975 L66.4720982,7.9971208 L69.2887454,7.9971208 L69.2887454,17.8476476 L66.4720982,17.8476476 L66.4720982,16.4509311 C65.8235281,17.2779343 64.9896522,18.0314261 63.5627981,18.0314261 C61.4546962,18.0314261 60.2170364,16.6645851 60.1906638,14.4468525 L60.1902336,14.3742343 L60.1902336,7.9971208 L63.0068808,7.9971208 Z M89.6188288,4.98315364 C91.1012747,4.98315364 92.2687009,5.38746631 93.0099238,6.12258025 C93.5843716,6.69229356 93.8805713,7.38273712 93.8985228,8.22732736 L93.8993914,8.30954423 L93.8986505,8.42346427 C93.8715483,9.82693568 93.1045621,10.6159642 92.1945786,11.1213551 L92.3294387,11.1739731 C93.7286479,11.7353006 94.5947236,12.5802801 94.6214469,14.2044144 L94.6220838,14.282345 L94.6215066,14.3893188 C94.5838208,16.6718158 92.7037941,17.8244768 89.8537349,17.8473018 L83.5963923,17.8476476 L83.5963923,4.98315364 L89.6188288,4.98315364 Z M46.8157919,4.43181818 L46.8157919,17.8476476 L43.9991446,17.8476476 L43.9991446,4.43181818 L46.8157919,4.43181818 Z M75.9389051,10.1840848 C74.6410137,10.1840848 73.5414867,11.2213861 73.5120068,12.8372754 L73.5113999,12.9040064 L73.5120068,13.006768 C73.5414867,14.6054978 74.6410137,15.6606837 75.9389051,15.6606837 C77.2367965,15.6606837 78.3182904,14.6054978 78.3472829,13.006768 L78.3478797,12.9407621 L78.3478797,12.9040064 C78.3478797,11.2683778 77.2545759,10.1840848 75.9389051,10.1840848 Z M53.4520537,10.2208405 C51.8613892,10.2208405 50.9021149,11.4195401 50.876817,12.8460524 L50.8763039,12.9040064 L50.8768512,12.997974 C50.9041864,14.4257629 51.9530278,15.6606837 53.4891148,15.6606837 C55.0797793,15.6606837 56.0390535,14.461984 56.0643514,13.0354718 L56.0648646,12.9775178 L56.0643172,12.8835501 C56.0369821,11.4557613 54.9881407,10.2208405 53.4520537,10.2208405 Z M89.6744205,12.5364494 L86.3759784,12.5364494 L86.3759784,15.3666381 L89.7670734,15.3666381 C91.0054269,15.3666381 91.7605588,14.9406479 91.7862298,14.0188931 L91.786906,13.9699216 L91.7863647,13.8902546 C91.7650605,13.0517898 91.1139373,12.5364494 89.6744205,12.5364494 Z M111.906477,10.0554398 C110.758837,10.0554398 110.005168,10.8546466 109.768699,12.0864184 L109.75693,12.1505146 L114.000431,12.1505146 C113.833656,10.9008209 113.092433,10.0554398 111.906477,10.0554398 Z M100.753387,10.0554398 C99.6057482,10.0554398 98.8520792,10.8546466 98.6156101,12.0864184 L98.6038409,12.1505146 L102.847342,12.1505146 C102.680567,10.9008209 101.939344,10.0554398 100.753387,10.0554398 Z M89.1926256,7.4641632 L86.3759784,7.4641632 L86.3759784,10.1840848 L89.0073199,10.1840848 C90.2460416,10.1840848 91.0370698,9.79336148 91.0635285,8.87224183 L91.0642136,8.82412399 L91.0642136,8.78736829 C91.0642136,7.94198726 90.3971129,7.4641632 89.1926256,7.4641632 Z"/>
  </g>
</svg>
