<?xml version="1.0" encoding="iso-8859-1"?>
<!-- Generator: Adobe Illustrator 17.0.0, SVG Export Plug-In . SVG Version: 6.00 Build 0)  -->
<!DOCTYPE svg PUBLIC "-//W3C//DTD SVG 1.1//EN" "http://www.w3.org/Graphics/SVG/1.1/DTD/svg11.dtd">
<svg version="1.1" id="Annotations" xmlns="http://www.w3.org/2000/svg" xmlns:xlink="http://www.w3.org/1999/xlink" x="0px"
	 y="0px" width="47.99px" height="48px" viewBox="0 0 47.99 48" style="enable-background:new 0 0 47.99 48;" xml:space="preserve">
<path d="M47.99,44.173L34.824,31.005c2.447-3.245,3.918-7.264,3.918-11.632C38.742,8.69,30.054,0,19.372,0C8.693,0,0,8.69,0,19.373
	C0,30.055,8.693,38.75,19.372,38.75c4.367,0,8.386-1.47,11.625-3.917L44.163,48L47.99,44.173z M5.413,19.373
	c0-7.698,6.263-13.962,13.959-13.962c7.698,0,13.956,6.265,13.956,13.962c0,7.701-6.258,13.964-13.956,13.964
	C11.677,33.337,5.413,27.074,5.413,19.373z"/>
</svg>
